<?xml version="1.0" standalone="no"?>
<!DOCTYPE svg PUBLIC "-//W3C//DTD SVG 1.1//EN" "http://www.w3.org/Graphics/SVG/1.1/DTD/svg11.dtd" >
<svg xmlns="http://www.w3.org/2000/svg">
<metadata>
This is a custom SVG webfont generated by Font Squirrel.
Copyright   : Copyright 1992 by Mike Allard for De Nada Industries  Generated by Fontographer 35
</metadata>
<defs>
<font id="webfontRNfMMGNG" horiz-adv-x="1071" >
<font-face units-per-em="2048" ascent="1638" descent="-410" />
<missing-glyph horiz-adv-x="854" />
<glyph unicode=" "  horiz-adv-x="854" />
<glyph unicode="&#x09;" horiz-adv-x="854" />
<glyph unicode="&#xa0;" horiz-adv-x="854" />
<glyph unicode="!" d="M66 164q0 66 40 131q57 94 164 94q184 0 185 -164q0 -90 -62.5 -157.5t-152.5 -67.5q-61 0 -113 39q-61 45 -61 125zM322 686q0 47 174 707q92 348 129 465q43 133 75 167q23 23 82 23t148 -45q109 -53 108 -119q0 -31 -96 -282q-92 -240 -160 -394q-100 -227 -184 -444 q-55 -139 -70.5 -159.5t-72.5 -20.5q-49 0 -88 26q-45 31 -45 76z" />
<glyph unicode="&#x22;" horiz-adv-x="1015" d="M47 1563q0 4 57 94q68 106 107 213l49 203q45 125 164 125h104q61 0 62 -62v-92q0 -109 -170 -338q-174 -236 -270 -236q-35 0 -69 29t-34 64zM465 1563q0 4 57 94q68 106 107 213l49 203q45 125 164 125h104q61 0 62 -62v-92q0 -111 -170 -338q-172 -236 -271 -236 q-35 0 -68.5 29t-33.5 64z" />
<glyph unicode="$" horiz-adv-x="1853" d="M0 246q0 68 30.5 124t88.5 56q31 0 161 -47t212 -47q49 0 165 311q109 287 109 328q0 2 -78 84q-92 96 -143 186q-78 133 -78 262q0 217 135 346q100 94 281 144l227 53q33 10 51 59q16 39 86 39q84 0 84 -43v-55q0 -35 92 -74q141 -59 170 -78q92 -57 93 -135 q-27 -203 -109 -203q-10 0 -129 96.5t-201 96.5q-39 0 -129 -238q-84 -221 -84 -251q0 -18 103 -107q127 -109 190 -199q102 -150 103 -313q0 -217 -152 -377q-139 -150 -350 -198q-121 -29 -212 -32t-93 -3q-20 -6 -37 -51l-86 -242q-29 -68 -97 -68q-33 0 -43 6.5 t-30 36.5l96 287q-23 37 -137 57q-147 25 -193 45q-96 44 -96 144zM725 322h31q143 0 243 112q86 94 86 184q0 78 -61 158q-53 68 -106 88zM778 1544q0 -109 117 -168l139 383h-76l-98 -57q-82 -66 -82 -158z" />
<glyph unicode="&#x26;" horiz-adv-x="2019" d="M0 420q0 223 102 360q78 106 246 187l297 129q-6 23 -39 69q-39 57 -55 97q-29 68 -29 151q0 190 217 408q231 227 469 227h113q111 0 178.5 -45t67.5 -129q0 -113 -62 -113q-16 0 -62 15.5t-71 15.5h-82q-129 0 -284 -147q-166 -156 -166 -314q0 -88 55 -135 q16 -12 104 -53q55 -27 56 -68q0 -82 -72 -104q-27 -8 -102 -8q-207 0 -365 -183q-137 -160 -137 -309q0 -106 100 -178q92 -68 217 -68q309 0 635 328v31q-92 0 -159 10l-66 10q-20 0 -51 -20v82q72 154 153 153h748q23 0 47.5 -18.5t24.5 -42.5q0 -39 -41 -99 q-45 -66 -93 -65h-204q-29 0 -84 -82q-86 -127 -131 -176q-100 -113 -226 -172q-344 -164 -501 -164h-236q-188 0 -342 113q-170 125 -170 307z" />
<glyph unicode="'" horiz-adv-x="700" d="M47 1563q0 4 57 94q68 106 107 213l49 203q45 125 164 125h104q61 0 62 -62v-92q0 -109 -170 -338q-174 -236 -270 -236q-35 0 -69 29t-34 64z" />
<glyph unicode="(" horiz-adv-x="1230" d="M-25 567v148q0 139 60 354q70 256 198 504q82 156 297 381q285 297 482 297q47 0 69 -60q12 -35 13 -69q0 -39 -105 -97q-158 -84 -256 -172q-88 -80 -117 -112q-88 -96 -188 -266q-109 -180 -176 -441q-55 -211 -55 -329v-185q0 -160 51 -289q23 -59 92 -176 q51 -84 51 -135q0 -37 -42 -69.5t-77 -32.5q-70 0 -178 231q-119 258 -119 518z" />
<glyph unicode=")" horiz-adv-x="1169" d="M0 -143q0 27 117 108q170 121 248 193q156 141 227 293l125 239q115 250 125 443v247q4 166 -49 328q-33 106 -99 221q-53 98 -53 109q0 31 43 69.5t76 38.5t100 -100q74 -113 127 -262q66 -180 74 -354q4 -88 0 -306q-2 -78 -53 -258q-82 -281 -232 -514 q-158 -248 -369.5 -431t-330.5 -183q-25 0 -50.5 33t-25.5 86z" />
<glyph unicode="*" horiz-adv-x="688" d="M23 1077q-4 18 121.5 77.5t125.5 62.5q0 2 -118.5 54t-104.5 83q4 8 23 8q35 0 135 -39q92 -39 94 -37t-23 86q-29 94 -28 135q0 31 16 37q29 10 68 -109.5t41 -119.5t63.5 124t77.5 120q10 -2 10 -17q0 -35 -50 -139.5t-48 -106.5t109.5 54.5t136.5 56.5q8 0 10 -6 q8 -25 -116 -92.5t-124 -69.5t120 -42t110 -64q-4 -8 -23 -9q-35 0 -135 31q-90 29 -92 27q-2 -4 29 -95q33 -100 32 -143q0 -33 -16 -41q-31 -16 -77 110l-46 126l-70 -130q-70 -130 -94 -120q-6 4 -6 12q0 33 59 150q55 111 54 112q-2 2 -103 -45q-109 -49 -143 -49 q-16 0 -18 8z" />
<glyph unicode="+" horiz-adv-x="3393" d="M45 -244v676q0 72 55 150q80 113 234 112q109 0 194.5 -81t85.5 -181v-495h-192v466q0 33 -21 64q-25 39 -67 39q-23 0 -51 -23q-41 -31 -41 -80v-647h-197zM49 -242h180v660q0 35 34 63.5t71 28.5q33 0 64.5 -28.5t31.5 -63.5v-479h180v485q0 72 -78 164 q-90 104 -198 104q-104 0 -194.5 -83t-90.5 -185v-666zM487 692v19l129 385h19v-45l-92 -226h24l13 19v-19l-74 -143zM647 711q2 18 35 102q35 94 49 105v-19q-8 -31 -20 -82q23 8 64.5 50t78.5 51h14v-37q0 -20 -18 -95q-23 -86 -41 -94v31q14 37 45 168q-53 -12 -92 -66 q-68 -94 -90 -114h-25zM758 -63l6 16v-14h737v16l-272 737h-180l194 -563h-231v14l112 265h-184l-100 -250l94 260h190v6l-90 270h62q0 12 -21 17v37q-119 -74 -155 -74q-12 0 -19 49q0 41 68.5 118t126.5 77q16 0 45 -37q8 33 63 190h-254v467h185v-281h200q41 0 103 46 q76 57 75 135q0 -180 -217 -195h-163v293h-179v-461h244l45 135l37 2l-41 -137h115q12 8 59 10q-27 -6 -53 -10q-47 -2 -92 -6q-41 -10 -74 -76q-37 -78 -98 -286h118q-2 61 35 149q33 80 58 94l-68 -186v-27q43 4 126 103.5t99 99.5q-70 -117 -69 -209h-23v55h-18l-115 -94 l274 -755h-755zM764 -27l76 185l-76 -205v20zM854 1626v195h487q143 0 249 -118t106 -263q0 129 -101 246q-111 127 -260 126h-479v-170h498q45 0 100 -61q59 -68 59 -143q0 61 -61 124.5t-117 63.5h-481zM918 711h32q16 0 88 48t72 66q0 31 -27 66l-82 -49 q-52 -43 -83 -131zM1034 143h195l-94 254q-33 -70 -60 -151q-21 -68 -41 -103zM1413 1085q49 12 92 35q-47 -33 -92 -35zM1475 809q8 16 22 33q33 39 90 76l94 63q31 23 60 23q6 -8 18 -9q-31 -35 -105.5 -59.5t-140.5 -110.5h48q23 0 70.5 15.5t86.5 15.5q-14 -33 -39 -59 q-59 -63 -159 -90q23 25 73 57q43 27 66 61h-17q-106 -39 -155 -39q-12 0 -12 23zM1505 1120q190 131 191 316q-1 -218 -191 -316zM1645 -63v481h188v-10h-174v-469h373q131 0 246.5 115.5t115.5 264.5q0 -152 -115 -270q-106 -113 -233 -112h-401zM1645 506v188h102 q0 49 28.5 123t28.5 101q-16 -16 -39 -19v19l54 32q39 33 69 121h-55v467h573v-184h-12v182h-549v-461h43q14 55 97 182h20v-18q-18 -47 -72 -164h398q16 20 28 21q20 0 35 -21v168h-375v111h11v-97h376v-186h-481q-33 -49 -47 -90h33q29 8 74 23h34v-33q-20 -10 -28 -6 q-16 6 -31 6q-86 0 -125 -62l-57 -123v-28h16q0 -47 -2 -51h213q0 49 37 97l76 97q-16 8 -56 39h33q23 -23 37 -22q6 0 31.5 11t36.5 11q4 0 13 -3t13 -3q-115 -53 -164 -240l13 -4q-12 2 -23 2h-266q-8 -20 -45 -20v20h-82v-182h393q51 0 102 -55q57 -61 58 -133 q0 -72 -54.5 -132.5t-105.5 -60.5h-20q57 0 116.5 66.5t59.5 126.5q0 57 -59.5 120.5t-116.5 63.5h-387zM1833 1626v195h573v-195h-573zM1845 1642h549v170h-549v-170zM2030 723q33 8 53 48t26 46v27q-25 -20 -47 -60zM2075 690q47 -6 100 -37q-45 21 -100 37zM2175 653 q219 -98 219 -331q0 51 -28.5 124.5t-78 122.5t-112.5 84zM2226 682v29l115 260l14 -15l-80 -208v-17q0 -29 -49 -49zM2394 758v28q29 23 68 81.5t65 80.5q45 37 109 37q35 0 35 -31q0 -72 -68 -112q-23 -14 -129 -49q-68 -25 -68 -56q0 -10 18.5 -20t29.5 -10q25 0 100 43 q90 51 110 59q-43 -53 -114 -92q-61 -35 -96 -35q-25 0 -42.5 23.5t-17.5 52.5zM2441 809q102 0 209 131v27h-24q-55 0 -122 -79t-63 -79zM2548 -63l8 22v14l61 152l107 293h188v6l-92 270h205l272 -757h-749zM2556 -41v-20h735v16l-268 737h-184l200 -563h-231v14l104 265 h-182l-113 -283zM2685 786v23q0 23 109.5 109t150.5 86q6 0 12 -4.5t11 -4.5q-18 -20 -107 -59q-78 -37 -137 -111h41q23 0 59.5 15.5t104.5 15.5q-25 -51 -89.5 -98t-115.5 -51q10 10 72 49q51 31 71 69h-20q-37 -8 -133 -39h-29zM2820 143h203q-23 41 -94 254 q-16 -29 -53.5 -125t-55.5 -129z" />
<glyph unicode="," horiz-adv-x="700" d="M12 -313q0 2 58 92q68 106 106 215l49 203q45 125 164 125h105q61 0 61 -62v-92q0 -111 -171 -342.5t-269 -231.5q-35 0 -69 29t-34 64z" />
<glyph unicode="-" d="M31 1051q-16 125 28 153q299 -14 619 -26q227 0 268 -14.5t49 -88.5q6 -57 -2 -153q-10 -115 -39 -134q-14 -8 -135 21q-113 25 -188 51q-106 37 -410 94q-182 36 -190 97z" />
<glyph unicode="." horiz-adv-x="665" d="M66 164q0 66 40 131q57 94 164 94q184 0 185 -164q0 -90 -62.5 -157.5t-152.5 -67.5q-61 0 -113 39q-61 45 -61 125z" />
<glyph unicode="/" d="M117 72q0 10 184 649q193 668 195 672q92 348 129 465q43 133 75 167q23 23 82 23t148 -45q109 -53 108 -119q0 -31 -96 -282q-92 -240 -160 -394q-96 -219 -329 -858q-137 -381 -203 -381q-49 0 -88 27q-45 31 -45 76z" />
<glyph unicode="0" horiz-adv-x="1404" d="M0 618v103q0 461 424 1008q248 319 442 319q47 0 109 -31q76 -39 76 -92q0 -8 -111 -113q-143 -133 -231 -231q-141 -158 -202 -282.5t-120 -301.5q-78 -231 -78 -348v-133q0 -90 47 -172q53 -96 140 -96q53 0 159 112q123 127 203 302q100 215 100 440v483 q-12 98 91 162q72 43 114 43q35 0 68 -64q45 -84 45 -235v-287q-16 -176 -92 -422q-102 -326 -252 -524q-193 -258 -436 -258q-174 0 -324 158q-172 179 -172 460z" />
<glyph unicode="1" horiz-adv-x="964" d="M0 102l467 1518q-59 2 -156.5 -69.5t-138.5 -71.5q-27 0 -64.5 50t-37.5 81q0 41 71 90q16 12 256 155q319 193 357 193q27 0 75 -31.5t48 -60.5l-308 -1008q-51 -193 -202 -715q-20 -84 -43 -165q-27 -68 -111 -68h-102q-111 0 -111 102z" />
<glyph unicode="2" horiz-adv-x="1599" d="M0 72q0 41 311 338q266 254 344 317q137 109 279 313q182 258 182 445q0 121 -88 211q-74 76 -137 76h-123q-37 0 -90 -20.5t-74 -20.5q-20 0 -41 24q-31 35 -31 98q0 119 97 162q70 33 221 33q272 0 438 -152.5t166 -400.5q0 -350 -686 -973l-162 -141q-68 -59 -84 -84 h594q154 0 154 -92q0 -164 -164 -205h-1045q-61 0 -61 72z" />
<glyph unicode="3" horiz-adv-x="1415" d="M0 217q0 47 16 94q23 70 66 70q-12 0 124 -51t247 -51q193 0 331 143q131 135 131 299q0 152 -104 211q-43 23 -193 47q-104 18 -104 72v82q0 39 123 75q164 47 229 92q123 84 123 244q0 229 -293 230q-27 0 -62.5 -2.5t-37.5 -2.5q-61 0 -61 93q0 72 30 125q35 61 94 61 h144q195 0 339 -136t144 -327q0 -164 -102 -268l-205 -174q276 -182 276 -391v-103q0 -229 -240.5 -439t-479.5 -210h-195q-106 0 -211 51q-129 64 -129 166z" />
<glyph unicode="4" horiz-adv-x="1277" d="M0 590q0 37 70 262q88 281 188 491q231 483 307 605q63 100 129 100q35 0 115 -41q88 -45 88 -84q0 2 -109 -186q-129 -217 -206 -394q-152 -342 -199 -466q-18 -53 -39 -105v-49h133q102 0 193 213l145 393q84 213 166 213q35 0 90 -33q66 -37 72 -79l-277 -629v-37h297 v-59l-53 -134q-18 -35 -66 -45q-20 -4 -178 -12q-100 -6 -123 -57q-49 -113 -86 -254q-31 -125 -47 -152q-29 -51 -96 -51q-66 0 -85 18.5t-19 67.5q0 33 36.5 170t59.5 182v49h-381q-125 1 -125 103z" />
<glyph unicode="5" horiz-adv-x="1759" d="M0 203q0 184 102 184q23 0 139.5 -51t166.5 -51h131q119 0 247 121q152 143 152 337q0 139 -117 234q-102 84 -221 84h-113q-49 0 -49 51q20 66 183 508l122 344q29 72 80 72q12 0 56.5 -4t78.5 -4h590q18 20 31 20q20 0 20 -51q0 -248 -274 -254h-326q-141 0 -225 -408 q0 -8 133 -71q158 -74 244 -154q133 -125 133 -285v-143q0 -121 -88 -272q-98 -172 -260 -281q-193 -129 -428 -129h-131q-141 0 -242 41q-135 53 -135 162z" />
<glyph unicode="6" horiz-adv-x="1323" d="M0 539v153q31 256 254 725q104 219 240 395q180 236 311 236h328q-4 -29 -66 -90q-102 -102 -195 -221q-164 -211 -362 -543v-31q41 -2 141.5 29t163.5 31q150 0 260 -109q129 -129 129 -350q0 -213 -125 -399q-109 -164 -280 -269q-162 -96 -299 -96q-170 0 -312 113 q-188 147 -188 426zM326 518q0 -106 59 -185t125 -79q145 0 256 207q90 166 90 272v82q0 49 -45 107q-55 68 -129 67q-356 0 -356 -471z" />
<glyph unicode="7" horiz-adv-x="1423" d="M0 154l987 1583q-51 33 -233 32q-68 0 -324 -12q-199 -8 -276 0q-61 6 -62 92q0 186 225 195q174 6 484 0q84 -2 252 -33q242 -47 241 -110q0 -16 -164 -340l-339 -646q-16 -29 -156 -303l-193 -387q-63 -133 -84 -159q-51 -66 -133 -66q-78 0 -141 39q-74 43 -84 115z " />
<glyph unicode="8" horiz-adv-x="1527" d="M0 340v102q0 125 123 283q76 98 227 240q123 113 123 127q0 -12 -71.5 145.5t-71.5 263.5v94q0 201 192 340q154 113 281 113h207q379 -84 379 -207q0 -39 -37 -82q-45 -51 -107 -51q-66 0 -161 56.5t-189 56.5q-102 0 -176 -70q-80 -76 -80 -186q0 -43 31 -146 q35 -123 71 -123q29 0 173.5 170t177.5 170q92 -43 92 -176q0 -104 -78 -184q-18 -18 -143 -109q-78 -57 -78 -106q0 12 88 -178.5t88 -274.5v-125q0 -207 -205 -358q-170 -125 -301 -125h-164q-113 0 -241 96q-150 109 -150 244zM279 412q0 -59 49 -117q57 -68 145 -68 q86 0 177 77t91 159v115q0 43 -43 139q-37 78 -69 127q-104 -55 -221 -195q-129 -149 -129 -237z" />
<glyph unicode="9" horiz-adv-x="1312" d="M0 1163v185q0 295 248 512q215 188 432 188q209 0 364 -152q150 -147 150 -331v-217q0 -219 -266 -730q-90 -174 -223 -348q-207 -270 -345 -270h-102q-37 0 -113 20q-94 23 -94 52q641 596 629 794q-18 0 -115.5 -26.5t-122.5 -26.5h-133q-94 0 -188 80 q-121 102 -121 270zM330 1204q0 -41 41 -92q49 -61 112 -61h84q129 0 217 118q82 113 82 261v176q0 74 -57 139t-139 65q-137 0 -248 -208q-92 -176 -92 -306v-92z" />
<glyph unicode=":" horiz-adv-x="835" d="M66 164q0 66 40 131q57 94 164 94q184 0 185 -164q0 -90 -62.5 -157.5t-152.5 -67.5q-61 0 -113 39q-61 45 -61 125zM274 1042q0 106 88 183q74 63 146 63q80 0 132 -45t52 -117q0 -100 -69.5 -177t-153.5 -77t-143 60q-52 51 -52 110z" />
<glyph unicode=";" horiz-adv-x="1050" d="M98 -246q0 4 58 94q68 106 106 213l49 203q45 125 164 125h105q61 0 61 -61v-92q0 -109 -172 -341.5t-268 -232.5q-35 0 -69 28.5t-34 63.5zM498 1042q0 106 86 183q76 63 147 63q80 0 132 -45t52 -117q0 -100 -69.5 -177t-153.5 -77q-86 0 -143 60q-51 51 -51 110z" />
<glyph unicode="?" horiz-adv-x="1155" d="M109 164q0 59 47 133q53 84 116 84h82q47 0 92 -35q61 -45 62 -129q0 -63 -49 -131q-63 -86 -166 -86q-88 0 -136 46t-48 118zM324 629q0 111 135 315l254 352q135 197 135 289q0 174 -186 174q-66 0 -121.5 -20.5t-63.5 -20.5q-51 0 -51 113q0 143 104 190q61 27 195 27 q176 0 299 -96q133 -102 133 -264v-82q0 -162 -162 -369l-178 -197q-137 -176 -221 -321l-78 -135q-23 -27 -82 -27q-112 0 -112 72z" />
<glyph unicode="A" horiz-adv-x="1558" d="M0 428q8 147 63 303q135 377 486 748q186 197 450 344q195 109 408 176q156 49 203 49h92q31 0 82 -54.5t51 -99.5q0 -23 -35 -26q-92 -12 -135 -25q-127 -33 -289 -110q-213 -102 -458 -336q-225 -215 -398.5 -481.5t-173.5 -405.5v-92q0 -72 68 -127q55 -47 104 -47 q100 0 250 121q223 178 455 563q92 156 295 571l53 121q55 102 110 102h82q41 0 76 -26.5t35 -65.5q0 -106 -123 -375l-231 -499q-123 -299 -123 -482q0 -51 81 -74.5t81 -35.5q0 -53 -31 -101q-33 -53 -80 -53q-336 0 -336 213q0 66 55 219q46 130 46 178q0 6 -1 11 l-143 -189q-145 -186 -287 -290q-203 -152 -415 -152q-174 0 -275 129q-92 119 -92 299z" />
<glyph unicode="B" horiz-adv-x="1683" d="M0 162v92q0 342 477 971q145 193 281 321q145 137 153 148q16 18 33 120.5t57 149.5q63 74 203 74q39 0 49 -27q2 -8 2 -55h48q188 92 329 92q152 0 258.5 -121t106.5 -287q0 -184 -142 -366q-84 -109 -174 -166q-39 -27 -116 -57q-43 -16 -43 -41q0 2 41 -68 q49 -80 79 -164q41 -121 41 -239q0 -229 -213 -400q-176 -139 -309 -139h-182q-53 0 -187.5 44t-129.5 44q-20 0 -80 -53q-76 -72 -127 -103q-92 -53 -191 -53q-119 0 -198 107q-66 88 -66 176zM248 248q0 -27 18.5 -51.5t28.5 -24.5q49 0 104 84l47 88q176 350 271 633 l78 248v49q-145 -123 -351 -518q-196 -381 -196 -508zM795 293q41 -6 73.5 -18.5t42.5 -12.5h90q135 0 256 135q111 125 111 232v104q0 82 -43 154q-37 61 -59 61q-23 0 -236 -28l-86 -258q-98 -268 -149 -326v-43zM1120 1266q131 -33 193 -68q45 -27 55 -27q53 0 178 165 t125 245v80q0 49 -47 99t-113 50q-178 0 -258 -92q-53 -63 -79 -205q-31 -168 -54 -210v-37z" />
<glyph unicode="C" horiz-adv-x="1378" d="M0 -113q0 227 98.5 514t321.5 721q145 283 465 578q375 348 649 348h92q86 0 172 -82q113 -104 113 -278q0 -205 -125 -385q-100 -141 -256 -240q-131 -84 -203 -84q-63 0 -108 70q-35 51 -35 84t45 49q117 45 119 47q88 43 163 129q47 53 99 155q57 119 57 197 q0 29 -25 66q-35 55 -100 55q-111 0 -293 -170q-242 -225 -520 -692q-68 -115 -190 -422q-154 -385 -160 -559v-162q0 -109 58.5 -183.5t158.5 -74.5q119 0 283 145q102 90 251 267q119 145 134 145q27 0 70.5 -49t43.5 -76q0 -29 -78 -154q-109 -172 -262 -290 q-309 -264 -471 -265h-147q-123 25 -209 93q-211 159 -211 503z" />
<glyph unicode="D" horiz-adv-x="1859" d="M0 614v82q14 113 51 228q90 276 287 528q156 199 473 358q291 143 467 144h133q27 0 69 45t87 47q32 -2 77.5 -2t104.5 2q-4 -51 -22.5 -84t-18.5 -47q0 -25 49 -47q84 -39 121 -66q84 -59 147 -166q100 -166 101 -358v-92q0 -131 -86 -385q-90 -268 -188.5 -406.5 t-235.5 -244.5q-195 -150 -377 -150h-205q-27 0 -116 25.5t-134 25.5q-41 0 -141 -51t-194 -51h-121q-53 0 -123 41q-84 49 -84 112q0 82 106 125q92 39 242 39h174q72 102 297 707q70 188 211 463q119 236 119 241q0 31 -51 31q-137 0 -361 -164q-229 -168 -377.5 -386 t-210.5 -415l-53 -225q-18 -68 -86 -67q-55 0 -93 50t-38 113zM940 227h61q248 0 420 154q147 168 271 477q117 301 116 492q0 131 -49 225q-53 102 -143 102q-35 0 -66 -57l-57 -127q-160 -328 -223 -532q-55 -178 -195 -449q-129 -248 -135 -285z" />
<glyph unicode="E" horiz-adv-x="1370" d="M0 -229q0 303 354 682q147 158 355 317q-72 106 -91 145q-41 82 -40 164q0 150 118 371q133 248 330 405q240 193 506 193q119 0 201 -45q98 -53 98 -154q0 -100 -82 -100q-2 0 -47 35t-135 35q-158 0 -332 -172q-145 -145 -256 -359q-102 -201 -102 -309q0 -45 6 -59 q10 -23 45 -23q-1 0 -2 1q0 4 96 44q106 45 180 45q53 0 101 -24q68 -35 67 -107q0 -66 -61 -125q-76 -70 -199 -74h-152q-51 0 -184 -157q-125 -150 -217 -305q-199 -340 -199 -494q0 -61 43 -108.5t103 -47.5q111 0 293 156q119 102 284 287q139 156 144 155q37 0 91 -48 t54 -95q0 -70 -158 -242q-164 -178 -356 -307q-227 -152 -383 -151h-115q-123 0 -233 86q-125 94 -125 223v162z" />
<glyph unicode="F" horiz-adv-x="1939" d="M0 -152q0 82 100 152h62q57 -223 287 -223q233 0 450 241q238 266 313 697h-120q-14 -4 -116 -18.5t-110 -14.5q-41 0 -41 66q0 127 117 163l232 31q137 18 163 100l176 506q35 96 35 135q0 41 -221 91q-197 45 -266 45q-131 0 -193 -68q-33 -35 -59 -123 q-20 -68 -53 -67q-61 0 -98 47t-37 118q0 147 147 244q123 78 252 78h254q72 0 332 -59q324 -74 350 -152l-297 -889q16 -33 170 -67q139 -33 139 -84q0 -43 -55 -211q-70 -207 -137 -207q-49 0 -64 6q-20 8 -31 45l54 201q-33 51 -136 51q-41 0 -73 -88l-86 -246 q-74 -193 -185 -366q-133 -211 -313 -336t-352 -125h-182q-160 0 -287 110q-121 102 -121 217z" />
<glyph unicode="G" horiz-adv-x="1701" d="M0 -178q0 59 29 112q33 66 84 66q23 0 61 -59q53 -80 86 -111q66 -59 154 -59h94q178 0 340 133q125 102 186 231q190 426 191 555q0 23 -6 33q-23 -6 -189 -107q-143 -88 -256 -88h-112q-86 0 -173 74q-117 98 -116 266q10 94 35 187q61 217 182 383v43h-125 q-80 0 -148.5 58t-68.5 136q0 94 45 94h12q6 -2 8 -2h379h11q93 0 194 68l195 137q131 76 294 76q98 0 158 -41t60 -117q0 -68 -111 -147q-152 -109 -459 -180q-121 -29 -229 -260q-92 -197 -92 -299q0 -90 53 -138.5t125 -48.5q119 0 274 131q84 70 240 246 q119 131 147 131q43 0 88 -27q55 -35 56 -90q0 -78 -152 -596q-172 -592 -293 -757q-143 -195 -379 -295q-166 -68 -292 -68h-105q-174 0 -313 82q-162 96 -162 248z" />
<glyph unicode="H" horiz-adv-x="1892" d="M0 305v82q0 182 190.5 372.5t450.5 268.5q70 20 125 29q39 6 49 12q25 14 124 311t99 340q0 41 -80 64q-66 18 -153 18h-225q-66 0 -109 -37q-23 -18 -53 -69q-25 -37 -43 -37q-27 0 -48.5 31.5t-21.5 60.5q0 117 138.5 206t340.5 89h193q106 -8 240 -45 q178 -49 178 -109q0 -76 -112 -411.5t-112 -370.5t46 -35q29 0 98 17.5t90 17.5q90 0 131 61q6 8 99.5 214t236.5 417q76 111 135 158q80 66 180 65q154 0 154 -151q0 -117 -70 -182q-43 -39 -137 -72q-80 -29 -88 -51l-154 -418q-47 -127 -127 -383q-106 -348 -106 -442 t76 -127q41 -16 127 -17h30v-49l-29 -82q-15 -41 -53 -41q-125 0 -268 47q-209 68 -209 197v102q0 94 103 500q0 51 -123 51h-82q-133 0 -240 -235q-188 -422 -198 -436q-150 -236 -387 -236h-93q-145 0 -239 125q-74 98 -74 180zM264 377q0 -113 90 -113q88 0 181 139 q68 98 129 259q49 125 49 143q-131 -31 -290 -180.5t-159 -247.5z" />
<glyph unicode="I" horiz-adv-x="1058" d="M0 258q0 29 18 70q25 51 56 51q14 0 41 -35q35 -45 67 -68q59 -35 152 -34q82 0 192.5 77.5t110.5 122.5q0 8 -53 37q-70 37 -115 76q-70 61 -100 147q-74 203 -74 322v111q33 279 266 583q250 330 490 330q113 0 186 -88q63 -76 63 -162v-110q0 -66 -49 -334 q-72 -383 -180 -680q-248 -674 -684 -674h-84q-117 0 -207 72q-96 75 -96 186zM571 877q0 -98 64 -179q47 -61 67 -61q41 0 72 78q35 88 121 438q61 250 111 608q0 14 -17.5 30.5t-30.5 16.5q-78 0 -247 -342q-78 -156 -117 -311q-23 -94 -23 -131v-147z" />
<glyph unicode="J" horiz-adv-x="1400" d="M0 -342q0 172 193 332q242 205 653 205h112q25 31 59 110.5t34 116.5q0 27 -45 39l-117 31q-90 31 -168 94q-70 57 -117 186q-37 104 -37 164v186q0 174 129 398q125 217 308 366q195 162 366 162h127q86 0 154 -78q72 -86 71 -217v-92q0 -438 -370 -1446q0 -20 20 -27 q10 -4 88 -12q0 -102 -59 -176h-125q-35 0 -78 -72l-102 -172q-80 -121 -181 -202q-260 -215 -469 -216h-147q-102 0 -200.5 97.5t-98.5 222.5zM270 -309q0 -59 49 -90q35 -23 72 -23q125 0 287 164q139 141 168 240h-115l-260 -99q-201 -88 -201 -192zM885 936 q0 -244 196 -287q45 0 76 101l109 395q92 307 135 555q0 80 -49 80q-135 0 -305 -332q-162 -317 -162 -512z" />
<glyph unicode="K" horiz-adv-x="2078" d="M0 256v92q0 72 82 72q35 0 111.5 -82t164.5 -82h103q272 0 543 666q0 -12 128 352t128 436q0 31 -68 53q-82 29 -219 29q-113 0 -176 -45q-27 -20 -72 -84q-33 -45 -70 -45q-43 0 -72.5 37t-29.5 96q0 152 217 234q139 53 223 53h246q82 0 197 -33q193 -57 192 -172 q0 -88 -87 -381t-87 -285q0 -31 16 -37q8 -4 46 -4q43 16 120 93q186 182 514 634l76 109q57 66 109 66h184q72 0 72 -82q0 -96 -183 -285q-190 -197 -626 -545q27 -39 82 -51q63 -12 90 -37q47 -47 74 -178l-154 -563q4 -80 53 -99q33 -14 152 -14v-41q0 -2 -33 -100 q-14 -43 -49 -43q-385 0 -461 276l154 574q-20 82 -93 82q-33 0 -63 -29q-53 -53 -70 -64q-41 -29 -118 -53q-57 -18 -76 -49l-115 -254q-102 -205 -244 -317q-197 -156 -481 -156q-150 0 -276 61q-154 72 -154 195z" />
<glyph unicode="L" horiz-adv-x="1683" d="M0 283v92q0 106 115 207q137 119 342 118q106 0 229 -38q84 -27 178 -74l80 -39q23 0 60 96q12 31 92 268q121 342 121 365q0 16 -91 49q-111 43 -163 86q-90 72 -91 180q0 37 31 90q37 61 80 62q14 0 45 -62q39 -76 76 -110q63 -61 153 -62q16 0 93 140q92 170 182 258 q141 139 313 139q131 0 203 -77t72 -195q0 -174 -146 -287q-49 -39 -280 -152q-160 -78 -183 -161q-37 -152 -112 -406q-94 -229 -154 -334q-29 -53 -28 -71q0 -33 151 -113q172 -90 315 -90q0 -152 -79 -152q-129 0 -240 53q-51 25 -154 97q-74 53 -114 53l-88 -55 q-104 -63 -195 -103q-127 -55 -223 -55h-174q-117 0 -254 78q-162 90 -162 205zM203 344q0 -82 94 -131q80 -41 180 -41t213 57q102 53 162 125q-113 76 -219 115q-74 29 -105 29h-133q-45 0 -104 -31q-88 -45 -88 -123zM1614 1542h59q285 143 285 283q0 92 -72 92 q-82 0 -170 -137q-75 -117 -102 -238z" />
<glyph unicode="M" horiz-adv-x="2875" d="M0 1251v146q0 256 213 465q190 186 367 186h153q143 0 227 -101.5t84 -250.5q0 -72 -26 -213q-31 -152 -66 -242v-31q35 8 185 230q182 270 309 397q211 211 405 211q96 0 174 -63q84 -70 84 -177q0 -78 -99 -320.5t-99 -291.5q0 -10 2 -16q25 14 176 223 q180 246 383 438q231 217 424 217q113 0 186 -57q82 -61 82 -170v-84q0 -96 -263 -727t-263 -637v-82q0 -72 88 -108q63 -27 149 -27v-41l-32 -105q-10 -31 -41 -30q-156 0 -301 67q-184 86 -185 234v92q0 115 253 689.5t253 613.5q0 82 -82 81q-25 0 -123 -77 q-135 -104 -282 -275q-195 -227 -381 -536q-41 -70 -164 -301q-135 -254 -166 -331l-61 -153q-53 -94 -146 -94h-102q-47 0 -86 22.5t-39 49.5q0 8 315.5 739t315.5 854q0 31 -32 61.5t-63 30.5q-104 -35 -215 -133q-266 -240 -518 -766l-262 -553q-92 -190 -149.5 -247.5 t-157.5 -57.5q-49 0 -92 14q-61 18 -62 58q0 72 133 368q186 414 250 582q133 362 133 592q0 86 -53 135t-133 49q-109 0 -223 -117q-129 -131 -129 -305v-125q0 -41 32 -108l31 -68q0 -33 -34.5 -57.5t-90.5 -24.5q-163 0 -186 258z" />
<glyph unicode="N" horiz-adv-x="2017" d="M0 1200v146q0 248 217 475t434 227q166 0 295 -109.5t129 -242.5v-123q0 -25 -35 -180q-37 -170 -57 -213v-31q74 31 213 268q176 299 272 410q188 211 404 211h102q70 0 135 -45q104 -72 105 -236q0 -127 -218 -729t-218 -696q0 -166 239 -166v-41l-24 -80 q-20 -45 -80 -45q-135 0 -260 55q-205 90 -205 287q0 150 113 481q63 186 208 551q113 283 113 312q0 72 -84 71q-203 0 -733 -889q-289 -483 -363 -641q-59 -125 -92 -166q-63 -82 -153 -81h-105q-37 0 -59.5 19t-22.5 42q0 12 140 319q168 367 258 623q139 391 139 610 q0 72 -51 123t-135 51q-127 0 -233.5 -165.5t-106.5 -370.5q0 -51 20.5 -135t20.5 -103q0 -39 -95 -53q-66 0 -137 66q-90 79 -90 194zM463 977z" />
<glyph unicode="O" horiz-adv-x="1337" d="M0 614v78q0 332 217 727q176 324 330 443q135 104 497 186h117q154 0 260 -168q53 -86 80 -184h31l84 92q35 37 61 37q33 0 71 -57.5t38 -110.5q0 -66 -62 -111q-106 -80 -122 -98q-76 -86 -101 -238q-20 -119 -69 -278q-43 -133 -74 -199q-117 -250 -303 -454 q-252 -279 -488 -279h-129q-139 0 -272 141q-166 178 -166 473zM334 557q0 -90 47 -174q63 -111 176 -111q221 0 455 459q96 190 188 459h-194q-94 0 -193.5 114.5t-99.5 206.5v109q-164 -133 -285 -522q-94 -299 -94 -426v-115zM907 1649q0 -76 67.5 -136.5t158.5 -60.5 q43 0 62 7t73 42v137q0 39 -43 107q-57 88 -142 88q-82 0 -133 -61q-43 -55 -43 -123z" />
<glyph unicode="P" horiz-adv-x="1409" d="M0 303v158q0 88 45 254q80 295 274 669q82 156 302 369q307 295 563 295h82q164 0 282 -127q113 -123 113 -285v-143q0 -84 -68 -274q-84 -229 -184 -330q-168 -166 -377 -166q-45 0 -108.5 12.5t-67.5 12.5q-33 0 -47 -43l-39 -136q-39 -117 -108 -241 q-57 -104 -140 -191q-129 -137 -246 -137t-196.5 90t-79.5 213zM242 354q0 -18 17 -48t34 -30q57 0 110 101l41 100q102 240 150 535q49 311 61 348q47 125 191 125q23 0 46 -27.5t23 -64.5v-176q0 -27 -34 -250q0 -43 51 -43q178 0 313 233q113 195 113 336v94 q0 98 -41 168q-51 84 -143 84q-176 0 -420 -272q-102 -115 -209 -275q-111 -166 -211 -479q-92 -285 -92 -393v-66z" />
<glyph unicode="Q" horiz-adv-x="1675" d="M0 338v102q0 92 100 201q111 119 242 119h131q115 0 232 -88q76 -55 167 -162q76 -88 86 -88q47 0 201 135q178 158 299 334q152 227 152 418q0 197 -148 354q-139 147 -288 147h-93q-115 0 -256 -94q-164 -111 -163 -246q0 -104 55 -145q2 -2 106 -47q55 -23 56 -84 q0 -74 -49.5 -129t-129.5 -55q-104 0 -204 98q-125 119 -125 311q0 229 216 429t484 200h219q272 0 471 -213q188 -199 189 -434v-154q-10 -96 -41 -194q-72 -238 -226.5 -439.5t-316.5 -310.5q-59 -39 -209 -108q-76 -35 -76 -84q0 -92 97 -209q66 -82 178 -176 q96 -80 96 -78q0 -74 -58.5 -130.5t-144.5 -56.5q-127 0 -231 150q-49 70 -146 280q-68 150 -108 150q4 0 -121 -20.5t-160 -20.5q-41 0 -57 -6q-1 0 -5 -1q-15 0 -69 7q-145 16 -254 135q-98 107 -98 203zM240 379q0 -57 65 -100q57 -39 117 -39q84 0 170 28q66 23 90 41 l-109 133q-63 61 -170 62q-149 0 -163 -125z" />
<glyph unicode="R" horiz-adv-x="1695" d="M0 246v125q0 100 68 266q121 305 417 649q133 156 252 244q104 76 109 84q16 23 22 112t52 150q72 96 254 182h61v-125q47 0 173 57.5t198 57.5h82q92 0 176 -70q113 -92 112 -260q0 -160 -114 -319q-82 -113 -224 -228l-145 -110q25 -37 69 -72t62 -63q29 -51 43 -154 l-133 -504q8 -63 45 -82q8 -4 119 -30q-18 -82 -62 -166h-143q-117 0 -205 53q-104 59 -104 162q0 90 76.5 332.5t76.5 287.5q0 49 -12 70q-16 31 -70 31l-286 -52q-20 -8 -113 -239q-111 -272 -215 -414q-162 -221 -362 -221q-111 0 -195 77t-84 169zM248 381q0 -39 41 -72 q70 0 133 166q125 250 194 453q74 213 84 235q-100 -25 -282 -381q-170 -329 -170 -401zM1061 1194q174 -41 205 -41q70 0 230.5 189.5t160.5 291.5q0 76 -58 121q-47 35 -106 35q-174 0 -268 -121q-63 -80 -105 -246q-41 -172 -59 -198v-31z" />
<glyph unicode="S" horiz-adv-x="1695" d="M0 145q0 123 94 195q84 66 215 66q113 0 512.5 -97.5t380.5 -97.5q23 0 70 70q66 98 65 237q0 160 -184 285l-340 207q-184 135 -184 319v154q0 182 232.5 373.5t486.5 191.5h153q139 0 271 -86q152 -100 151 -242q0 -61 -38 -107t-97 -46q-12 0 -49 67q-45 84 -105 129 q-92 68 -235 68q-195 0 -344.5 -118t-149.5 -281q0 -119 189 -234l352 -209q188 -145 188 -338v-145q0 -59 -41 -170t-41 -117q0 -53 144 -53v-31q-27 -51 -45 -108q-10 -27 -23 -27l-48 6q-48 6 -110 6q-12 0 -124 -82q-137 -102 -248 -155q-172 -82 -328 -82h-141 q-205 0 -400 114q-229 137 -229 338zM238 117q0 -94 170 -158q133 -49 241 -49q166 0 398 125l-9 18l-626 146h-95q-27 0 -53 -29.5t-26 -52.5z" />
<glyph unicode="T" horiz-adv-x="1492" d="M0 -131q0 41 27.5 86t64.5 45q10 0 47 -37q45 -45 101 -69q86 -37 211 -37q221 0 370 141q117 109 197 315q23 61 104 338q133 451 252 807q53 158 53 211q0 25 -112 62q-127 41 -254 41h-275q-84 0 -179 -60.5t-105 -60.5q-51 0 -51 121q0 123 139 202q129 74 307 74 h225q662 -78 662 -154q0 -53 -160 -665q-147 -567 -168 -629q-164 -494 -307 -698q-225 -319 -580 -320h-149q-145 0 -277 82q-143 88 -143 205z" />
<glyph unicode="U" horiz-adv-x="2109" d="M0 1413q0 201 123 356q100 127 262 203q133 66 229 66h144q162 0 286 -121q113 -111 113 -217v-103q0 -109 -123 -437l-246 -654q-41 -115 -40 -168q0 -51 71 -51q104 0 268 178q207 223 469 692q41 72 318 625l90 192q45 74 135 74q170 0 174 -102l-399 -1618 q6 -98 80 -131q47 -23 155 -23l2 -23q0 -70 -43 -141h-133q-180 0 -284.5 77t-104.5 220q0 57 56.5 286.5t87.5 287.5v30q-14 -4 -183 -245q-197 -283 -356 -435q-240 -231 -444 -231h-113q-98 0 -170 74q-66 68 -66 151q0 82 235.5 704.5t235.5 708.5q0 74 -59 119 q-49 35 -104 35q-115 0 -240 -117q-150 -139 -150 -334q0 -59 15.5 -109t15.5 -75q0 -61 -112 -61q-195 0 -195 317z" />
<glyph unicode="V" horiz-adv-x="1255" d="M0 381v258q14 129 37 250q55 293 147 500q68 193 144 329q176 330 352 330q184 0 184 -82q0 4 -139 -252q-160 -295 -256 -536q-139 -344 -139 -560v-102q0 -57 35 -129q45 -88 108 -88h82q164 0 377 244q186 211 334 510q143 291 143 448q0 27 -51 112t-51 146v92 q0 49 43 111q61 86 172 86q53 0 108 -49q78 -72 78 -209v-174q0 -68 77 -93.5t77 -82.5q0 -31 -31 -74q-37 -49 -82 -49q-10 0 -43 15.5t-51 15.5q-25 0 -32 -12.5t-40 -102.5q-43 -129 -102 -275q-78 -195 -226 -411q-158 -233 -374.5 -390t-386.5 -157h-177 q-115 0 -219 133q-98 125 -98 248z" />
<glyph unicode="W" horiz-adv-x="1982" d="M0 440v185q10 109 31 225q47 274 133 532q76 190 155 328q188 328 357 328q49 0 100 -17q74 -23 74 -65q0 2 -107 -184q-137 -238 -251 -523q-90 -221 -136 -475q-29 -158 -28 -221v-113q0 -63 39 -112q45 -61 125 -62q88 0 227 135q131 129 131 183v194q0 180 127 412 q145 264 313 264q174 0 174 -184q0 -123 -84 -258q-27 -41 -159 -207q-84 -106 -84 -160q0 -125 53 -213q61 -104 172 -104q102 0 213 129q100 121 248 403q256 494 256 625q0 6 -37 53q-45 55 -70 104q-37 78 -37 160q0 76 41 146q57 100 174 100q135 0 174 -119 q20 -59 21 -229v-133q53 -43 113 -70q31 -12 30 -33q0 -25 -28 -78q-35 -66 -74 -65h-62q-27 0 -63 -100q-92 -250 -98 -269q-84 -201 -197 -379q-154 -242 -235 -331q-213 -231 -441 -232q-121 0 -213 72q-57 45 -110 133q-45 72 -56 72q-8 0 -75 -74q-84 -90 -168 -139 q-125 -74 -269 -74q-170 0 -284.5 131t-114.5 309z" />
<glyph unicode="X" horiz-adv-x="1861" d="M-614 -264q0 72 82 71q37 0 90 -16t63 -16h82q55 0 170 55q213 102 457 346q469 532 469 633q0 -4 -1 -4q-7 0 -112 641q-31 184 -92 315q-51 109 -156 109h-69q-29 8 -29 49q41 119 162 119h92q176 0 280 -183q68 -117 123 -360q53 -229 78 -264q16 6 162 227 q168 250 305 385q211 205 402 205q80 0 137 -31q70 -37 69 -108q0 -39 -2 -47q-8 -18 -41 -19h-98q-227 0 -514 -420l-293 -422q-55 -80 -55 -118q0 -72 106 -289q127 -260 260 -338q84 -49 177 -63l172 -17v-41l-25 -82q-16 -53 -47 -53h-119q-96 16 -174 35 q-188 41 -258 78q-98 51 -176 151q-41 49 -102 158q-43 72 -62 72q-10 0 -176 -240q-188 -270 -311 -375q-358 -348 -639 -348h-82q-102 0 -193 49q-112 60 -112 156z" />
<glyph unicode="Y" horiz-adv-x="2058" d="M0 1282v78q0 276 240 485q217 190 446 191q193 0 326 -103q145 -113 145 -303q0 -158 -100 -483q-61 -201 -187 -533q-100 -268 -100 -286q0 -63 92 -64q250 0 768 862q172 285 346 705l60 160q31 55 116 55q180 0 195 -100l-485 -1733q14 -45 28 -45q4 0 21.5 7t34.5 7 h112v-49q-47 -139 -96 -139q-8 0 -29.5 4t-36.5 4q-113 0 -280 -281q-104 -176 -256 -288.5t-295 -112.5q-72 0 -129 37q-66 43 -66 111q0 125 129 243q29 27 258 195q158 115 197 203t135 342q133 346 144 430q-43 -12 -179 -219q-160 -248 -305 -373q-158 -135 -260 -195 q-168 -94 -338 -94q-82 0 -149 53q-82 63 -82 170q0 127 221 715t221 682q0 92 -59 141q-51 43 -139 43q-150 0 -285 -223q-125 -205 -125 -381q0 -66 30.5 -125t30.5 -61q0 -51 -102 -51q-94 0 -162 135q-51 104 -51 184z" />
<glyph unicode="Z" horiz-adv-x="1595" d="M0 -385q0 184 186 326q139 106 365 174q170 51 256 51h178q68 0 115 94q47 88 47 201v84q0 53 -23 129q-35 109 -90 108q-141 -43 -207 -43h-90q-55 0 -99 38t-44 97q0 70 71.5 116t176.5 46q59 0 109 -14t75 -14t113 71q109 88 180 197q92 145 92 295q0 106 -102 184 q-88 68 -162 68h-82q-72 0 -168 -64q-109 -74 -109 -160q0 -18 39 -112q0 -12 -27.5 -32.5t-62.5 -20.5q-63 0 -112 63q-41 53 -41 92v90q0 127 176 248t348 121h102q209 0 375 -152q154 -139 154 -278v-143q0 -147 -123 -291q-76 -88 -225 -197q-123 -88 -123 -102l55 -74 q68 -86 107 -166q59 -119 63 -225v-213q0 -29 20 -31q63 -6 82 -10q-33 -166 -90 -166q-8 0 -29.5 3t-33.5 3q-20 -2 -35.5 -10t-75.5 -109q-74 -123 -184 -233q-133 -133 -318 -234q-193 -102 -319 -102h-170q-125 0 -227 84q-113 88 -113 213zM258 -326v-110 q51 -37 53 -39q25 -12 66 -12q119 0 260 104q102 76 213 207l115 139q-68 21 -115 21h-8q-190 -8 -340 -84q-111 -55 -187 -140q-57 -63 -57 -86z" />
<glyph unicode="\" d="M117 1884q0 66 106 119q90 45 150 45q59 0 82 -23q33 -35 75 -167q35 -115 129 -465q0 -2 195 -672q184 -639 184 -649q0 -45 -42 -74t-91 -29q-66 0 -203 381q-233 639 -329 858q-68 154 -160 394q-96 251 -96 282z" />
<glyph unicode="a" horiz-adv-x="1333" d="M-68 0q14 113 37 143q12 16 62 27q59 10 110 53v107q0 225 140 432q119 174 301 291q166 109 282 108h103q25 0 105.5 -24.5t88.5 -24.5q23 0 49.5 43t65.5 43h80q35 0 86 -22q59 -27 59 -64q0 -55 -80 -215q-129 -254 -151 -305q-80 -188 -80 -309q0 -102 143 -119v-45 q-10 -33 -18 -64q-20 -45 -70 -45q-119 0 -203 43q-106 53 -106 158v139l-152 -180q-166 -170 -288 -170h-107q-31 0 -95.5 34t-78.5 34q-66 -18 -215 -68h-68zM459 330q0 -51 39 -86q31 -27 57 -27q61 0 154 107l147 192q68 88 150 227q76 131 75 154q0 16 -20.5 32.5 t-36.5 16.5h-88q-115 0 -291 -215q-186 -225 -186 -401z" />
<glyph unicode="b" horiz-adv-x="1193" d="M-66 0v53q49 117 136 135q125 29 135 35q72 53 104.5 256t134.5 551q133 453 218 647q164 371 331 371q61 0 108.5 -38t47.5 -97v-84q0 -82 -139 -350q-193 -375 -260 -539q-139 -346 -140 -614q0 -127 64 -127q41 0 137 71q113 86 184 199q94 145 95 303q0 27 -50 51 q-72 35 -92 56q-49 45 -49 120q0 82 55.5 140.5t145.5 58.5q113 0 190 -119q57 -92 58 -151v-156q0 -221 -232 -498q-238 -285 -450 -284h-127q-74 0 -173 66q-88 59 -89 66q0 1 2 1q6 0 -41 -27q-68 -41 -238 -96h-66z" />
<glyph unicode="c" horiz-adv-x="940" d="M-90 0q27 131 102 178q14 8 127 39q61 16 62 80q0 18 -16.5 86t-16.5 84v98q0 266 246 463q215 170 415 170q119 0 203 -53q94 -61 94 -164q0 -55 -41 -103.5t-86 -48.5q-25 0 -38 37q-23 51 -37 66q-33 37 -105 37q-102 0 -211 -148q-115 -154 -114 -309q0 -111 88 -215 q123 -150 358 -150v-49l-35 -88q-10 -20 -63 -20q-141 0 -273 39q-90 25 -178 69l-74 39q-4 -6 -317 -137h-90z" />
<glyph unicode="d" horiz-adv-x="1347" d="M-70 0q16 115 37 141q10 14 60 25q57 10 112 55v187q0 141 105.5 330.5t265.5 316.5q182 143 371 143h77l150 -31q55 33 131 248q102 291 141 369q98 190 219 190q59 0 107 -20q61 -27 61 -78q0 -23 -28 -84q-51 -102 -72 -156q-328 -807 -414 -1065q-55 -170 -55 -290 q0 -63 47 -95q27 -18 103 -36v-41q0 -2 -35 -97q-4 -12 -62 -12q-78 0 -164 29q-133 45 -139 131q4 26 4 76t-4 124q-152 -197 -188 -231q-154 -150 -324 -149q-96 0 -163.5 45t-82.5 45q-6 0 -51 -19q-70 -29 -139 -51h-70zM449 330q0 -47 26.5 -78t65.5 -31q127 0 321 342 l189 367v39h-52q-176 0 -368 -242q-182 -227 -182 -397z" />
<glyph unicode="e" horiz-adv-x="927" d="M-82 0v39q39 94 84 119q16 8 104.5 22.5t176.5 67.5l-62 117q-47 106 -47 229q0 248 191 432q178 172 389 172q115 0 205 -77t90 -165v-104q0 -145 -99 -279q-49 -70 -180 -192q-98 -90 -98 -127q0 -43 108 -74q74 -16 148 -35q-20 -100 -41 -127q-12 -18 -47 -18 q-131 0 -258 54.5t-158 54.5l-424 -109h-82zM518 559q0 -57 49 -129q266 233 285 438q0 39 -24.5 68t-65.5 29q-82 0 -163 -114t-81 -208v-84z" />
<glyph unicode="f" horiz-adv-x="1042" d="M-68 0q43 154 95 172l94 25q61 49 123 280q94 354 176 580q143 399 229 555q238 436 518 436q125 0 207 -96.5t82 -235.5q0 -119 -63 -315q-68 -205 -156 -344q-174 -272 -319 -426q-82 -86 -175 -146q-51 -35 -51 -61l154 -240q6 -2 196 -24v-54q-20 -84 -41 -116h-131 q-37 -209 -104 -357q-162 -356 -449 -356q-268 0 -268 246v100q20 127 62 328v49h-179zM342 -422q23 -55 51 -55q70 0 152 209q72 184 71 268q0 49 -120 119zM637 674q139 113 352 512q209 391 209 520q0 94 -61 94q-68 0 -166 -211q-43 -92 -125 -317q-168 -459 -209 -598z " />
<glyph unicode="g" horiz-adv-x="1376" d="M-72 0v31q70 170 160 170h4h4q25 0 35 17.5t10 84.5v111q0 123 99 301q109 199 270 325q195 154 412 154q92 0 193 -40q90 -36 91 -39l-2 -1l21 31q20 31 51 51q45 29 110 29q92 0 111 -6q39 -12 64 -74l-367 -955v-49q96 12 100 13l82 -13q-39 -135 -102 -157l-121 -21 q-80 -37 -147 -205q-57 -141 -158 -266q-137 -174 -273 -174q-53 0 -100 43q-59 49 -59 129q0 78 133 219l244 254q133 154 133 270q0 18 -4 39l-154 -139q-162 -133 -270 -133h-111q-41 0 -107.5 36t-74.5 36q-6 2 -205 -72h-72zM467 334q0 -113 98 -113q131 0 324 295 q225 346 225 402q0 66 -100 65q-180 0 -371 -260q-176 -235 -176 -389z" />
<glyph unicode="h" horiz-adv-x="1351" d="M-66 0q31 106 109 166q100 78 160 186q113 199 233 647q4 35 226 701l53 166q47 90 151 90h84q92 0 121 -96l-420 -1072l21 -8l182 219q188 199 309 199h88q53 0 103 -37q70 -53 76 -155l-222 -744q6 -76 66 -96q20 -6 78 -6v-51q-10 -33 -39 -109h-115q-115 0 -211 53 t-96 129v80l201 635q-6 31 -31 31q-133 0 -529 -666l-90 -196q-41 -78 -149 -78q-55 0 -80 24q-14 12 -25 43q-10 25 -22 25q-150 -80 -205 -80h-27z" />
<glyph unicode="i" horiz-adv-x="673" d="M-66 0v39q51 104 111 129q76 31 109 74q72 96 168 387q39 115 98 344q35 137 67 176q41 49 146 49q125 0 160 -86l-275 -876q31 -88 156 -89v-49q-12 -35 -27 -67q-20 -41 -63 -41q-104 0 -189 39q-53 25 -104 71q-43 39 -49 39q-10 0 -27 -18q-23 -25 -59 -47 q-59 -37 -170 -74h-52zM674 1741q0 90 58.5 143t148.5 53q139 0 139 -149q0 -78 -60.5 -141.5t-138.5 -63.5q-53 0 -98 39q-49 47 -49 119z" />
<glyph unicode="j" horiz-adv-x="671" d="M-135 -467q0 47 160.5 229.5t160.5 272.5q0 31 -14 55q4 -4 -199 -90h-39v39q47 98 119 149q88 59 119 103q68 98 131 334q78 293 127 422q45 113 84 139q16 12 76 12h82q94 0 116 -90l-307 -932v-37h191v-30q-51 -94 -113 -129q-92 -49 -98 -58q-57 -55 -111 -209 q-131 -385 -327 -385q-57 0 -107.5 42t-50.5 87v76zM608 1737q0 90 64.5 152.5t163.5 62.5q68 0 104.5 -37t36.5 -88q0 -106 -86 -180q-72 -59 -129 -60q-154 0 -154 150z" />
<glyph unicode="k" horiz-adv-x="1101" d="M-61 0v57q39 98 102 129q74 35 135 142q104 188 258 684l215 694q45 135 53 154q47 90 129 90h103q109 0 110 -88l-403 -1129v-49h158q70 0 121 133l84 248q55 133 133 133q43 0 77 -27q41 -35 41 -90q0 -160 -297 -440q0 -8 39 -38t39 -77v-80q0 -6 -13 -75.5 t-13 -112.5q0 -61 46 -88t46 -31q-25 -139 -92 -139q-121 0 -191.5 55.5t-70.5 149.5q0 47 26 170v110h-47q-47 -23 -102 -26q-27 0 -56 -2q-31 -12 -61 -135q-47 -178 -64 -218q-45 -115 -110 -114h-101q-51 0 -61 28q-14 41 -27 84q-25 -2 -51 -24q-42 -35 -155 -78z" />
<glyph unicode="l" horiz-adv-x="698" d="M-82 0v41q12 51 41 115q43 10 86 18q94 27 156 80q88 76 110 205q72 426 107 559q123 469 203 668q147 362 305 362q68 0 122 -42t54 -103v-84q0 -12 -141 -312q-170 -360 -261 -604q-141 -373 -141 -569v-86q0 -41 51 -62q45 -14 88 -30q-16 -55 -30 -113 q-20 -43 -76 -43q-104 0 -174 37q-45 25 -82 69q-31 37 -43 37q-4 0 -55 -37q-74 -51 -238 -106h-82z" />
<glyph unicode="m" horiz-adv-x="1957" d="M-66 0v37q45 115 117 149q98 49 125 80q74 90 143 348q98 367 132 445q63 150 165 149q145 0 146 -86q0 -35 -55.5 -164t-55.5 -182q0 -16 4 -28q31 23 124 147.5t167 183.5q113 92 238 92q72 0 127 -43t55 -110q-10 -57 -70 -213v-29q57 18 136 125q106 145 141 178 q94 92 205 92h86q66 0 116 -61q45 -51 45 -92v-80l-219 -678q14 -59 56 -82q6 -2 65 -16q33 -6 33 -37q0 -20 -18 -66q-27 -59 -60 -59q-143 0 -240 41q-143 59 -143 199q0 74 109.5 361.5t109.5 299.5q0 18 -8 21q8 -2 -29 -2q-68 0 -264 -281q-170 -242 -243 -399 l-66 -142q-51 -88 -109 -88h-122q-59 0 -78 68l297 805q-10 41 -13.5 44t-33.5 3q-115 0 -299 -340l-277 -533q-35 -57 -164 -57q-63 0 -78 18l-28 70q-37 -20 -219 -88h-50z" />
<glyph unicode="n" horiz-adv-x="1296" d="M-66 0v57q29 84 91 107q84 33 122 80q82 98 162 368l125 457q43 129 125 129h78q104 0 104 -76q0 -10 -26 -100q-33 -117 -70 -207v-31q25 8 117 113q111 121 184 178q125 94 238 94q188 0 200 -182l-231 -737q10 -86 143 -96v-58l-36 -86q-10 -20 -58 -20 q-143 0 -239 51q-117 61 -117 180q0 129 106.5 393.5t106.5 249.5q0 10 -15.5 23.5t-33.5 13.5q-74 0 -240 -209q-168 -217 -260 -442q-74 -182 -78 -189q-45 -72 -141 -71q-68 0 -96 22q-16 12 -25 43q-8 23 -23 23q-39 -23 -163 -78h-50z" />
<glyph unicode="o" horiz-adv-x="1112" d="M-43 0v59q70 143 174 144q51 0 62 12q25 23 24 115v159q0 201 203 447q219 262 446 262q100 0 101 -59q0 6 -119 -138q-137 -166 -223 -311q-119 -209 -119 -360q0 -150 139 -150t264 230q106 195 107 319q0 23 -49 75t-49 134q0 72 34 125q43 66 123 65q96 0 160 -88 q51 -76 51 -151v-80q0 -121 -100 -348q-111 -254 -240 -352q-154 -119 -358 -119q-86 0 -183.5 49t-87.5 49q-199 -88 -319 -88h-41z" />
<glyph unicode="p" horiz-adv-x="1349" d="M-66 0q14 106 76 154q14 10 119 53q74 31 103.5 93t117.5 392q129 485 166 570q55 133 160 133q129 0 149 -78l-129 -418l21 -10l143 153q152 143 242 144h108q76 0 156 -74q92 -84 92 -192v-129q0 -174 -145 -388l-160 -204q43 -31 117 -31q41 0 80 10v-49 q-8 -33 -50 -121h-108q-115 0 -192.5 24.5t-94.5 24.5q-8 0 -90 -24.5t-108 -24.5h-99q-6 0 -60 15.5t-71 15.5q-57 0 -92 -180q-59 -315 -66 -332q-53 -180 -157 -180h-137q-57 0 -62 69l178 574v39h-39q-33 -6 -108 -29h-60zM549 297h186q35 0 94.5 -20.5t55.5 -20.5 q55 0 174 227q113 215 112 279q0 168 -118 168q-92 0 -262 -216t-242 -417z" />
<glyph unicode="q" horiz-adv-x="1347" d="M-88 0v47q55 139 158 139h8h8q39 0 56.5 23.5t17.5 107.5v111q0 129 100 305q109 188 268 311q184 143 379 144q72 0 150 -40t90 -40q6 0 44 45t85 45h82q100 0 106 -82l-288 -915v-51q25 -4 58.5 3t49.5 7q29 0 64 -10v-31q-18 -35 -33 -86q-8 -33 -29 -43l-53 -13 q-51 -16 -92 -65q-59 -70 -103 -201q-20 -61 -43 -198q-18 -102 -47 -138q-41 -51 -141 -51q-41 6 -107 29l39 59q0 37 -51 49v31l260 787l-20 10q-20 -12 -97 -100.5t-143 -131.5q-98 -68 -209 -67q-96 0 -167.5 44t-82.5 44l-229 -78h-88zM459 328q0 -37 24 -74 q29 -45 76 -45q115 0 309 299q55 84 132 233.5t77 165.5q0 25 -30.5 48.5t-67.5 23.5q-109 0 -240 -135q-111 -117 -198 -283q-82 -155 -82 -233z" />
<glyph unicode="r" horiz-adv-x="907" d="M-66 0q10 63 27 129q4 8 44 19.5t77 41.5q59 49 213 345t154 370q-35 59 -35 86v70q0 61 57 108q49 39 90 39q29 0 68 -26q53 -39 53 -103v-80q0 -41 80 -75q137 -61 145 -68q80 -49 80 -125q0 -59 -87 -251.5t-87 -254.5q0 -51 47 -73.5t47 -38.5q0 -113 -94 -113 q-115 0 -188.5 58.5t-73.5 158.5q0 66 83 265.5t83 195.5q0 39 -46 80t-75 41q-27 0 -84 -156q-80 -209 -141 -311q-179 -295 -437 -332z" />
<glyph unicode="s" horiz-adv-x="1062" d="M-63 0l36 135q8 14 41 21q41 10 84 41q86 61 316.5 352t230.5 338q0 2 -13.5 38t-13.5 70q0 86 69 145.5t163 59.5q135 0 135 -108q0 -33 -44 -106t-44 -89l45 -68q53 -82 86 -153q45 -104 45 -191q0 -88 -63 -202l-70 -113v-27h125q-20 -94 -27 -106q-16 -37 -61 -37 q-43 0 -104.5 18.5t-84.5 18.5q-12 0 -95 -22.5t-103 -22.5h-96q-78 0 -179.5 49t-99.5 49q-10 0 -61 -27q-70 -35 -154 -63h-63zM438 287q55 -37 101 -125h34q197 123 197 276v90q0 88 -45 125q-2 -4 -143 -174q-130 -153 -144 -192z" />
<glyph unicode="t" horiz-adv-x="753" d="M-66 0q8 41 39 150l76 24q86 33 137 88q41 45 70 139l51 177q94 260 94 278q0 35 -79.5 39t-79.5 37q0 51 36.5 86t65.5 35h105q41 59 83 229q51 201 76 256q51 121 129 121h101q88 0 94 -76l-158 -473v-68q119 0 135 -2q70 -10 70 -61q0 -45 -37 -94h-188 q-57 0 -146 -297q-78 -258 -78 -299q0 -76 93 -109q57 -20 131 -20v-39q-12 -37 -45 -121h-103q-106 0 -209.5 56.5t-128.5 56.5l-53 -27q-74 -39 -215 -86h-66z" />
<glyph unicode="u" horiz-adv-x="1366" d="M-57 0q31 113 63 152q23 27 60 26q68 0 96 37q63 72 133 334q94 356 176 530q61 129 98 129h80q33 0 94 -26q72 -33 93 -72l-295 -807q12 -86 80 -86q55 0 104 57l100 140q139 190 222 403l94 266q43 96 116 97h109q98 0 98 -78q0 -45 -133 -365.5t-133 -441.5 q0 -76 59 -107q33 -16 109 -20v-29q-12 -25 -35 -114q-6 -25 -63 -25q-305 0 -305 186q0 -16 6 54q1 13 1 27q0 35 -7 77l-170 -201q-141 -143 -273 -143h-78q-53 0 -115.5 44t-70.5 44l-256 -88h-57z" />
<glyph unicode="v" horiz-adv-x="1269" d="M-66 0v39q41 104 119 145l113 46q55 24 55 87v99q0 188 189 555q27 76 67 143q51 84 92 84h80q57 0 102.5 -35t45.5 -84q0 -66 -80 -217l-148 -282q-80 -170 -80 -283q0 -35 33 -82t68 -47q94 0 255 225t161 371q0 14 -45.5 60t-45.5 126q0 92 59.5 160t147.5 68 q170 0 170 -217q0 -115 -92 -334q-111 -260 -266 -426q-195 -211 -416 -211q-80 0 -135 30q-23 12 -70 58q-33 31 -61 31q-31 -18 -74 -35q-103 -43 -244 -74z" />
<glyph unicode="w" horiz-adv-x="1636" d="M-80 0v59q41 88 119 119q59 14 119 31q53 12 53 61v109q0 53 45 233q61 236 141 385q106 201 234 201q47 0 92 -16q66 -20 65 -64q-291 -606 -290 -819q0 -33 24.5 -55.5t57.5 -22.5q172 0 260 211l116 395q68 211 193 211q158 0 158 -90q0 -4 -94.5 -254t-94.5 -344v-80 q0 -61 101 -80q84 0 236.5 220.5t152.5 349.5q0 16 -49.5 57t-49.5 90v82q0 84 70 146q59 53 119 53q74 0 127 -66q43 -53 43 -94v-121q0 -76 -92 -291q-109 -250 -240 -415q-168 -211 -328 -211h-100q-80 0 -145 45q-41 27 -84 80q-35 45 -41 45q-4 0 -64 -45 q-72 -51 -127 -80q-86 -45 -158 -45q-76 0 -155.5 49t-83.5 49q-18 -10 -250 -88h-80z" />
<glyph unicode="x" horiz-adv-x="1103" d="M-66 0q23 160 52 170q532 129 532 283q0 109 -219 634q0 45 39 83t100 38q106 0 172 -100q41 -61 82 -199q37 -119 60 -135l174 254q137 180 258 180q29 0 71 -28q51 -35 52 -72l-21 -70q-8 -10 -59 -22t-64 -19q-39 -23 -192 -229q-168 -225 -168 -295q0 -96 78 -180 q53 -55 145 -107q78 -43 78 -45q0 -23 -18.5 -72t-32.5 -69h-101q-203 0 -372 221q-301 -221 -533 -221h-113z" />
<glyph unicode="y" horiz-adv-x="1327" d="M-59 6q49 123 127 162q14 6 114 25q49 10 49 67v88q0 57 50 252q61 244 139 399q104 209 219 209q150 0 149 -90q0 4 -134 -332.5t-134 -447.5q0 -109 101 -109q80 0 217 187q158 211 290 542q66 166 68 166q43 74 133 74q109 0 141 -80l-321 -938v-41l57 8q37 6 58 7 q49 0 65 -37q-23 -43 -35 -90q-10 -37 -14 -39l-109 -29q-98 -49 -182 -242q-174 -399 -389 -399q-57 0 -99 37t-42 94q0 94 92 193q178 188 205 225q133 180 202 442h-28l-160 -184q-150 -147 -303 -148q-57 0 -107 29q-35 20 -62 51l-28 31h2q0 -4 -95 -44 q-105 -44 -181 -44q-30 0 -55 6z" />
<glyph unicode="z" horiz-adv-x="806" d="M-242 -365q0 68 39 156q57 125 174 203q92 61 189 92q6 4 119 31q43 10 43 33q0 43 -62 88q-84 61 -260 96v55q27 61 166 105q190 59 235 84q119 70 119 202q0 68 -53 115t-109 47q-45 0 -74.5 -14.5t-41.5 -14.5q-51 0 -52 80q0 92 74 148.5t182 56.5q109 0 222 -82 q152 -113 151 -313q0 -137 -88 -260q-63 -86 -141 -133q-8 -6 -88 -37q-55 -20 -56 -39q147 -195 195 -195h168q-10 -170 -84 -170q-6 0 -20.5 2t-20.5 2q-25 0 -35 -20q-2 -45 -6 -90q-6 -94 -53 -201q-150 -340 -471 -340q-133 0 -236 74q-125 85 -125 239zM-29 -346 q0 -41 33 -76t64 -35q102 0 196 127q84 119 84 221v46q-4 16 -26 16q-96 0 -223.5 -109.5t-127.5 -189.5z" />
<glyph unicode="&#xaa;" horiz-adv-x="1333" d="M-68 0q14 113 37 143q12 16 62 27q59 10 110 53v107q0 225 140 432q119 174 301 291q166 109 282 108h103q25 0 105.5 -24.5t88.5 -24.5q23 0 49.5 43t65.5 43h80q35 0 86 -22q59 -27 59 -64q0 -55 -80 -215q-129 -254 -151 -305q-80 -188 -80 -309q0 -102 143 -119v-45 q-10 -33 -18 -64q-20 -45 -70 -45q-119 0 -203 43q-106 53 -106 158v139l-152 -180q-166 -170 -288 -170h-107q-31 0 -95.5 34t-78.5 34q-66 -18 -215 -68h-68zM459 330q0 -51 39 -86q31 -27 57 -27q61 0 154 107l147 192q68 88 150 227q76 131 75 154q0 16 -20.5 32.5 t-36.5 16.5h-88q-115 0 -291 -215q-186 -225 -186 -401z" />
<glyph unicode="&#xad;" d="M31 1051q-16 125 28 153q299 -14 619 -26q227 0 268 -14.5t49 -88.5q6 -57 -2 -153q-10 -115 -39 -134q-14 -8 -135 21q-113 25 -188 51q-106 37 -410 94q-182 36 -190 97z" />
<glyph unicode="&#xb2;" horiz-adv-x="1599" d="M0 72q0 41 311 338q266 254 344 317q137 109 279 313q182 258 182 445q0 121 -88 211q-74 76 -137 76h-123q-37 0 -90 -20.5t-74 -20.5q-20 0 -41 24q-31 35 -31 98q0 119 97 162q70 33 221 33q272 0 438 -152.5t166 -400.5q0 -350 -686 -973l-162 -141q-68 -59 -84 -84 h594q154 0 154 -92q0 -164 -164 -205h-1045q-61 0 -61 72z" />
<glyph unicode="&#xb3;" horiz-adv-x="1415" d="M0 217q0 47 16 94q23 70 66 70q-12 0 124 -51t247 -51q193 0 331 143q131 135 131 299q0 152 -104 211q-43 23 -193 47q-104 18 -104 72v82q0 39 123 75q164 47 229 92q123 84 123 244q0 229 -293 230q-27 0 -62.5 -2.5t-37.5 -2.5q-61 0 -61 93q0 72 30 125q35 61 94 61 h144q195 0 339 -136t144 -327q0 -164 -102 -268l-205 -174q276 -182 276 -391v-103q0 -229 -240.5 -439t-479.5 -210h-195q-106 0 -211 51q-129 64 -129 166z" />
<glyph unicode="&#xb9;" horiz-adv-x="964" d="M0 102l467 1518q-59 2 -156.5 -69.5t-138.5 -71.5q-27 0 -64.5 50t-37.5 81q0 41 71 90q16 12 256 155q319 193 357 193q27 0 75 -31.5t48 -60.5l-308 -1008q-51 -193 -202 -715q-20 -84 -43 -165q-27 -68 -111 -68h-102q-111 0 -111 102z" />
<glyph unicode="&#xba;" horiz-adv-x="1112" d="M-43 0v59q70 143 174 144q51 0 62 12q25 23 24 115v159q0 201 203 447q219 262 446 262q100 0 101 -59q0 6 -119 -138q-137 -166 -223 -311q-119 -209 -119 -360q0 -150 139 -150t264 230q106 195 107 319q0 23 -49 75t-49 134q0 72 34 125q43 66 123 65q96 0 160 -88 q51 -76 51 -151v-80q0 -121 -100 -348q-111 -254 -240 -352q-154 -119 -358 -119q-86 0 -183.5 49t-87.5 49q-199 -88 -319 -88h-41z" />
<glyph unicode="&#x152;" horiz-adv-x="2707" d="M1337 -229q0 303 354 682q147 158 355 317q-72 106 -91 145q-41 82 -40 164q0 150 118 371q133 248 330 405q240 193 506 193q119 0 201 -45q98 -53 98 -154q0 -100 -82 -100q-2 0 -47 35t-135 35q-158 0 -332 -172q-145 -145 -256 -359q-102 -201 -102 -309q0 -45 6 -59 q10 -23 45 -23q-1 0 -2 1q0 4 96 44q106 45 180 45q53 0 101 -24q68 -35 67 -107q0 -66 -61 -125q-76 -70 -199 -74h-152q-51 0 -184 -157q-125 -150 -217 -305q-199 -340 -199 -494q0 -61 43 -108.5t103 -47.5q111 0 293 156q119 102 284 287q139 156 144 155q37 0 91 -48 t54 -95q0 -70 -158 -242q-164 -178 -356 -307q-227 -152 -383 -151h-115q-123 0 -233 86q-125 94 -125 223v162zM0 614v78q0 332 217 727q176 324 330 443q135 104 497 186h117q154 0 260 -168q53 -86 80 -184h31l84 92q35 37 61 37q33 0 71 -57.5t38 -110.5q0 -66 -62 -111 q-106 -80 -122 -98q-76 -86 -101 -238q-20 -119 -69 -278q-43 -133 -74 -199q-117 -250 -303 -454q-252 -279 -488 -279h-129q-139 0 -272 141q-166 178 -166 473zM334 557q0 -90 47 -174q63 -111 176 -111q221 0 455 459q96 190 188 459h-194q-94 0 -193.5 114.5 t-99.5 206.5v109q-164 -133 -285 -522q-94 -299 -94 -426v-115zM907 1649q0 -76 67.5 -136.5t158.5 -60.5q43 0 62 7t73 42v137q0 39 -43 107q-57 88 -142 88q-82 0 -133 -61q-43 -55 -43 -123z" />
<glyph unicode="&#x153;" horiz-adv-x="2039" d="M1030 0v39q39 94 84 119q16 8 104.5 22.5t176.5 67.5l-62 117q-47 106 -47 229q0 248 191 432q178 172 389 172q115 0 205 -77t90 -165v-104q0 -145 -99 -279q-49 -70 -180 -192q-98 -90 -98 -127q0 -43 108 -74q74 -16 148 -35q-20 -100 -41 -127q-12 -18 -47 -18 q-131 0 -258 54.5t-158 54.5l-424 -109h-82zM1630 559q0 -57 49 -129q266 233 285 438q0 39 -24.5 68t-65.5 29q-82 0 -163 -114t-81 -208v-84zM-43 0v59q70 143 174 144q51 0 62 12q25 23 24 115v159q0 201 203 447q219 262 446 262q100 0 101 -59q0 6 -119 -138 q-137 -166 -223 -311q-119 -209 -119 -360q0 -150 139 -150t264 230q106 195 107 319q0 23 -49 75t-49 134q0 72 34 125q43 66 123 65q96 0 160 -88q51 -76 51 -151v-80q0 -121 -100 -348q-111 -254 -240 -352q-154 -119 -358 -119q-86 0 -183.5 49t-87.5 49 q-199 -88 -319 -88h-41z" />
<glyph unicode="&#x2000;" horiz-adv-x="1124" />
<glyph unicode="&#x2001;" horiz-adv-x="2250" />
<glyph unicode="&#x2002;" horiz-adv-x="1124" />
<glyph unicode="&#x2003;" horiz-adv-x="2250" />
<glyph unicode="&#x2004;" horiz-adv-x="749" />
<glyph unicode="&#x2005;" horiz-adv-x="561" />
<glyph unicode="&#x2006;" horiz-adv-x="374" />
<glyph unicode="&#x2007;" horiz-adv-x="374" />
<glyph unicode="&#x2008;" horiz-adv-x="280" />
<glyph unicode="&#x2009;" horiz-adv-x="448" />
<glyph unicode="&#x200a;" horiz-adv-x="124" />
<glyph unicode="&#x2010;" d="M31 1051q-16 125 28 153q299 -14 619 -26q227 0 268 -14.5t49 -88.5q6 -57 -2 -153q-10 -115 -39 -134q-14 -8 -135 21q-113 25 -188 51q-106 37 -410 94q-182 36 -190 97z" />
<glyph unicode="&#x2011;" d="M31 1051q-16 125 28 153q299 -14 619 -26q227 0 268 -14.5t49 -88.5q6 -57 -2 -153q-10 -115 -39 -134q-14 -8 -135 21q-113 25 -188 51q-106 37 -410 94q-182 36 -190 97z" />
<glyph unicode="&#x2012;" d="M31 1051q-16 125 28 153q299 -14 619 -26q227 0 268 -14.5t49 -88.5q6 -57 -2 -153q-10 -115 -39 -134q-14 -8 -135 21q-113 25 -188 51q-106 37 -410 94q-182 36 -190 97z" />
<glyph unicode="&#x2013;" horiz-adv-x="1024" d="M27 786v418h923v-418h-923z" />
<glyph unicode="&#x2014;" horiz-adv-x="2048" d="M27 786v418h1947v-418h-1947z" />
<glyph unicode="&#x2018;" horiz-adv-x="700" d="M68 1475v92q0 111 171 342t269 231q33 0 67.5 -29.5t34.5 -62.5q0 -4 -57 -94q-68 -106 -107 -213l-49 -203q-47 -125 -166 -125h-102q-61 1 -61 62z" />
<glyph unicode="&#x2019;" horiz-adv-x="700" d="M47 1563q0 4 57 94q68 106 107 213l49 203q45 125 164 125h104q61 0 62 -62v-92q0 -109 -170 -338q-174 -236 -270 -236q-35 0 -69 29t-34 64z" />
<glyph unicode="&#x201c;" horiz-adv-x="1015" d="M98 1577v92q0 109 172 341.5t269 232.5q35 0 68.5 -29t33.5 -64q0 -4 -57 -94q-68 -106 -107 -213l-49 -203q-45 -125 -164 -124h-104q-62 0 -62 61zM518 1577v92q0 111 171 342.5t269 231.5q33 0 68 -30t35 -63q0 -4 -57 -94q-68 -106 -107 -213l-49 -203 q-47 -125 -166 -124h-102q-62 0 -62 61z" />
<glyph unicode="&#x201d;" horiz-adv-x="1015" d="M47 1563q0 4 57 94q68 106 107 213l49 203q45 125 164 125h104q61 0 62 -62v-92q0 -109 -170 -338q-174 -236 -270 -236q-35 0 -69 29t-34 64zM465 1563q0 4 57 94q68 106 107 213l49 203q45 125 164 125h104q61 0 62 -62v-92q0 -111 -170 -338q-172 -236 -271 -236 q-35 0 -68.5 29t-33.5 64z" />
<glyph unicode="&#x2026;" horiz-adv-x="1996" d="M1397 164q0 66 40 131q57 94 164 94q184 0 185 -164q0 -90 -62.5 -157.5t-152.5 -67.5q-61 0 -113 39q-61 45 -61 125zM732 164q0 66 40 131q57 94 164 94q184 0 185 -164q0 -90 -62.5 -157.5t-152.5 -67.5q-61 0 -113 39q-61 45 -61 125zM66 164q0 66 40 131 q57 94 164 94q184 0 185 -164q0 -90 -62.5 -157.5t-152.5 -67.5q-61 0 -113 39q-61 45 -61 125z" />
<glyph unicode="&#x202f;" horiz-adv-x="448" />
<glyph unicode="&#x205f;" horiz-adv-x="561" />
<glyph unicode="&#x2122;" horiz-adv-x="4368" d="M1493 1251v146q0 256 213 465q190 186 367 186h153q143 0 227 -101.5t84 -250.5q0 -72 -26 -213q-31 -152 -66 -242v-31q35 8 185 230q182 270 309 397q211 211 405 211q96 0 174 -63q84 -70 84 -177q0 -78 -99 -320.5t-99 -291.5q0 -10 2 -16q25 14 176 223 q180 246 383 438q231 217 424 217q113 0 186 -57q82 -61 82 -170v-84q0 -96 -263 -727t-263 -637v-82q0 -72 88 -108q63 -27 149 -27v-41l-32 -105q-10 -31 -41 -30q-156 0 -301 67q-184 86 -185 234v92q0 115 253 689.5t253 613.5q0 82 -82 81q-25 0 -123 -77 q-135 -104 -282 -275q-195 -227 -381 -536q-41 -70 -164 -301q-135 -254 -166 -331l-61 -153q-53 -94 -146 -94h-102q-47 0 -86 22.5t-39 49.5q0 8 315.5 739t315.5 854q0 31 -32 61.5t-63 30.5q-104 -35 -215 -133q-266 -240 -518 -766l-262 -553q-92 -190 -149.5 -247.5 t-157.5 -57.5q-49 0 -92 14q-61 18 -62 58q0 72 133 368q186 414 250 582q133 362 133 592q0 86 -53 135t-133 49q-109 0 -223 -117q-129 -131 -129 -305v-125q0 -41 32 -108l31 -68q0 -33 -34.5 -57.5t-90.5 -24.5q-163 0 -186 258zM0 -131q0 41 27.5 86t64.5 45 q10 0 47 -37q45 -45 101 -69q86 -37 211 -37q221 0 370 141q117 109 197 315q23 61 104 338q133 451 252 807q53 158 53 211q0 25 -112 62q-127 41 -254 41h-275q-84 0 -179 -60.5t-105 -60.5q-51 0 -51 121q0 123 139 202q129 74 307 74h225q662 -78 662 -154 q0 -53 -160 -665q-147 -567 -168 -629q-164 -494 -307 -698q-225 -319 -580 -320h-149q-145 0 -277 82q-143 88 -143 205z" />
<glyph unicode="&#xfb01;" horiz-adv-x="1716" d="M976 0v39q51 104 111 129q76 31 109 74q72 96 168 387q39 115 98 344q35 137 67 176q41 49 146 49q125 0 160 -86l-275 -876q31 -88 156 -89v-49q-12 -35 -27 -67q-20 -41 -63 -41q-104 0 -189 39q-53 25 -104 71q-43 39 -49 39q-10 0 -27 -18q-23 -25 -59 -47 q-59 -37 -170 -74h-52zM1716 1741q0 90 58.5 143t148.5 53q139 0 139 -149q0 -78 -60.5 -141.5t-138.5 -63.5q-53 0 -98 39q-49 47 -49 119zM-68 0q43 154 95 172l94 25q61 49 123 280q94 354 176 580q143 399 229 555q238 436 518 436q125 0 207 -96.5t82 -235.5 q0 -119 -63 -315q-68 -205 -156 -344q-174 -272 -319 -426q-82 -86 -175 -146q-51 -35 -51 -61l154 -240q6 -2 196 -24v-54q-20 -84 -41 -116h-131q-37 -209 -104 -357q-162 -356 -449 -356q-268 0 -268 246v100q20 127 62 328v49h-179zM342 -422q23 -55 51 -55 q70 0 152 209q72 184 71 268q0 49 -120 119zM637 674q139 113 352 512q209 391 209 520q0 94 -61 94q-68 0 -166 -211q-43 -92 -125 -317q-168 -459 -209 -598z" />
<glyph unicode="&#xfb02;" horiz-adv-x="1740" d="M960 0v41q12 51 41 115q43 10 86 18q94 27 156 80q88 76 110 205q72 426 107 559q123 469 203 668q147 362 305 362q68 0 122 -42t54 -103v-84q0 -12 -141 -312q-170 -360 -261 -604q-141 -373 -141 -569v-86q0 -41 51 -62q45 -14 88 -30q-16 -55 -30 -113 q-20 -43 -76 -43q-104 0 -174 37q-45 25 -82 69q-31 37 -43 37q-4 0 -55 -37q-74 -51 -238 -106h-82zM-68 0q43 154 95 172l94 25q61 49 123 280q94 354 176 580q143 399 229 555q238 436 518 436q125 0 207 -96.5t82 -235.5q0 -119 -63 -315q-68 -205 -156 -344 q-174 -272 -319 -426q-82 -86 -175 -146q-51 -35 -51 -61l154 -240q6 -2 196 -24v-54q-20 -84 -41 -116h-131q-37 -209 -104 -357q-162 -356 -449 -356q-268 0 -268 246v100q20 127 62 328v49h-179zM342 -422q23 -55 51 -55q70 0 152 209q72 184 71 268q0 49 -120 119z M637 674q139 113 352 512q209 391 209 520q0 94 -61 94q-68 0 -166 -211q-43 -92 -125 -317q-168 -459 -209 -598z" />
<glyph unicode="&#xfb03;" horiz-adv-x="2758" d="M2019 0v39q51 104 111 129q76 31 109 74q72 96 168 387q39 115 98 344q35 137 67 176q41 49 146 49q125 0 160 -86l-275 -876q31 -88 156 -89v-49q-12 -35 -27 -67q-20 -41 -63 -41q-104 0 -189 39q-53 25 -104 71q-43 39 -49 39q-10 0 -27 -18q-23 -25 -59 -47 q-59 -37 -170 -74h-52zM2759 1741q0 90 58.5 143t148.5 53q139 0 139 -149q0 -78 -60.5 -141.5t-138.5 -63.5q-53 0 -98 39q-49 47 -49 119zM974 0q43 154 95 172l94 25q61 49 123 280q94 354 176 580q143 399 229 555q238 436 518 436q125 0 207 -96.5t82 -235.5 q0 -119 -63 -315q-68 -205 -156 -344q-174 -272 -319 -426q-82 -86 -175 -146q-51 -35 -51 -61l154 -240q6 -2 196 -24v-54q-20 -84 -41 -116h-131q-37 -209 -104 -357q-162 -356 -449 -356q-268 0 -268 246v100q20 127 62 328v49h-179zM1384 -422q23 -55 51 -55 q70 0 152 209q72 184 71 268q0 49 -120 119zM1679 674q139 113 352 512q209 391 209 520q0 94 -61 94q-68 0 -166 -211q-43 -92 -125 -317q-168 -459 -209 -598zM-68 0q43 154 95 172l94 25q61 49 123 280q94 354 176 580q143 399 229 555q238 436 518 436q125 0 207 -96.5 t82 -235.5q0 -119 -63 -315q-68 -205 -156 -344q-174 -272 -319 -426q-82 -86 -175 -146q-51 -35 -51 -61l154 -240q6 -2 196 -24v-54q-20 -84 -41 -116h-131q-37 -209 -104 -357q-162 -356 -449 -356q-268 0 -268 246v100q20 127 62 328v49h-179zM342 -422q23 -55 51 -55 q70 0 152 209q72 184 71 268q0 49 -120 119zM637 674q139 113 352 512q209 391 209 520q0 94 -61 94q-68 0 -166 -211q-43 -92 -125 -317q-168 -459 -209 -598z" />
<glyph unicode="&#xfb04;" horiz-adv-x="2783" d="M2003 0v41q12 51 41 115q43 10 86 18q94 27 156 80q88 76 110 205q72 426 107 559q123 469 203 668q147 362 305 362q68 0 122 -42t54 -103v-84q0 -12 -141 -312q-170 -360 -261 -604q-141 -373 -141 -569v-86q0 -41 51 -62q45 -14 88 -30q-16 -55 -30 -113 q-20 -43 -76 -43q-104 0 -174 37q-45 25 -82 69q-31 37 -43 37q-4 0 -55 -37q-74 -51 -238 -106h-82zM974 0q43 154 95 172l94 25q61 49 123 280q94 354 176 580q143 399 229 555q238 436 518 436q125 0 207 -96.5t82 -235.5q0 -119 -63 -315q-68 -205 -156 -344 q-174 -272 -319 -426q-82 -86 -175 -146q-51 -35 -51 -61l154 -240q6 -2 196 -24v-54q-20 -84 -41 -116h-131q-37 -209 -104 -357q-162 -356 -449 -356q-268 0 -268 246v100q20 127 62 328v49h-179zM1384 -422q23 -55 51 -55q70 0 152 209q72 184 71 268q0 49 -120 119z M1679 674q139 113 352 512q209 391 209 520q0 94 -61 94q-68 0 -166 -211q-43 -92 -125 -317q-168 -459 -209 -598zM-68 0q43 154 95 172l94 25q61 49 123 280q94 354 176 580q143 399 229 555q238 436 518 436q125 0 207 -96.5t82 -235.5q0 -119 -63 -315 q-68 -205 -156 -344q-174 -272 -319 -426q-82 -86 -175 -146q-51 -35 -51 -61l154 -240q6 -2 196 -24v-54q-20 -84 -41 -116h-131q-37 -209 -104 -357q-162 -356 -449 -356q-268 0 -268 246v100q20 127 62 328v49h-179zM342 -422q23 -55 51 -55q70 0 152 209q72 184 71 268 q0 49 -120 119zM637 674q139 113 352 512q209 391 209 520q0 94 -61 94q-68 0 -166 -211q-43 -92 -125 -317q-168 -459 -209 -598z" />
</font>
</defs>
</svg>
